<?xml version="1.0" encoding="UTF-8" standalone="no"?>
<!-- Created with Inkscape (http://www.inkscape.org/) -->

<svg
   width="210mm"
   height="297mm"
   viewBox="0 0 210 297"
   version="1.1"
   id="svg5"
   inkscape:version="1.1.1 (3bf5ae0d25, 2021-09-20)"
   sodipodi:docname="adesivi_tlscp_pc_tblt.svg"
   xmlns:inkscape="http://www.inkscape.org/namespaces/inkscape"
   xmlns:sodipodi="http://sodipodi.sourceforge.net/DTD/sodipodi-0.dtd"
   xmlns="http://www.w3.org/2000/svg"
   xmlns:svg="http://www.w3.org/2000/svg">
  <sodipodi:namedview
     id="namedview7"
     pagecolor="#ffffff"
     bordercolor="#666666"
     borderopacity="1.0"
     inkscape:pageshadow="2"
     inkscape:pageopacity="0.0"
     inkscape:pagecheckerboard="0"
     inkscape:document-units="mm"
     showgrid="false"
     inkscape:zoom="1.3416246"
     inkscape:cx="161.37152"
     inkscape:cy="240.38021"
     inkscape:window-width="1600"
     inkscape:window-height="837"
     inkscape:window-x="-8"
     inkscape:window-y="-8"
     inkscape:window-maximized="1"
     inkscape:current-layer="layer1" />
  <defs
     id="defs2" />
  <g
     inkscape:label="Livello 1"
     inkscape:groupmode="layer"
     id="layer1">
    <path
       id="path1075"
       style="fill:none;stroke:#ffffff;stroke-width:2.42316;stroke-linecap:round;stroke-linejoin:round"
       d="m 15.634319,11.582927 c -0.298757,0 -0.536055,0.249669 -0.536055,0.564041 v 9.445538 c 0,0.314494 0.237298,0.564132 0.536055,0.564132 h 4.033942 c -2.776223,0.865164 -4.431956,3.956264 -4.633726,4.91382 h 14.500674 c 0,0 -1.355114,-3.919554 -4.497372,-4.91382 h 3.897587 c 0.298874,0 0.536113,-0.249638 0.536113,-0.564132 v -9.445538 c 0,-0.314311 -0.237239,-0.563979 -0.536113,-0.563979 H 15.634319 Z" />
    <path
       id="path640"
       style="fill:#ffffff;fill-rule:evenodd;stroke:#000000;stroke-width:0.931981;stroke-linecap:round;stroke-linejoin:round"
       d="m 15.033262,27.070569 h 14.503176 c 0,0 -1.834603,-5.388319 -6.230477,-5.158214 -0.553832,0 -1.073151,-0.04596 -1.834603,0 -3.876825,-0.276353 -6.195155,4.006837 -6.437556,5.158214" />
    <path
       id="rect627"
       style="fill:#ffffff;fill-rule:evenodd;stroke:#000000;stroke-width:0.931981;stroke-linecap:round;stroke-linejoin:round"
       d="m 15.634319,11.583046 c -0.298757,0 -0.539272,0.253087 -0.539272,0.56746 v 9.442824 c 0,0.314374 0.240515,0.56746 0.539272,0.56746 h 13.296824 c 0.298757,0 0.539272,-0.253086 0.539272,-0.56746 v -9.442824 c 0,-0.31443 -0.240515,-0.567517 -0.539272,-0.567517 H 15.634319 Z" />
    <g
       id="g1080"
       transform="matrix(0.2907345,0,0,0.30592834,13.562837,9.8700779)">
      <path
         id="rect628"
         style="fill-rule:evenodd;stroke:#000000;stroke-width:1.875;stroke-linecap:round;stroke-linejoin:round"
         d="m 10.01,9.7615 v 26.25 H 49.99 V 9.7615 L 10.01,9.761 Z" />
      <path
         id="path831"
         style="fill:#ffffff"
         d="m 13.213,12.935 v -0.87 l 6.524,2.222 v 0.793 l -6.524,2.222 v -0.87 l 5.242,-1.744 z" />
    </g>
    <path
       inkscape:connector-curvature="0"
       id="path2997"
       d="m 14.743471,63.607623 c -0.626802,-0.151194 -0.740564,-0.860896 -0.740564,-4.619983 -0.03442,-7.290176 0,1.170694 0,-9.263472 0,-3.133681 0.07205,-4.86038 0.214604,-5.142739 0.189522,-0.375405 0.373109,-0.438482 1.570876,-0.539728 0.74595,-0.06305 4.149313,-0.08806 7.563029,-0.05558 4.906317,0.04669 6.272706,0.108481 6.521517,0.294914 0.285669,0.214052 0.31476,1.098562 0.31476,9.570628 v 9.334779 l -0.423186,0.267513 c -0.366199,0.231488 -1.385413,0.264828 -7.568768,0.247578 -3.930069,-0.01096 -7.28359,-0.05322 -7.452268,-0.09391 z m 8.083939,-1.081638 c 0,-0.489309 -0.595061,-0.747176 -0.901766,-0.30327 -0.163526,0.236675 -0.200357,0.487852 0.02083,0.614978 0.421049,0.242003 0.880943,0.157809 0.880943,-0.311708 z M 28.854828,53.23891 V 45.162184 H 22.190505 15.52618 v 8.076726 8.076726 h 6.664325 6.664323 z"
       style="fill:#282728;stroke-width:0.180889"
       sodipodi:nodetypes="sccssssscsssssssccccccccc" />
    <path
       id="path4"
       inkscape:connector-curvature="0"
       d="m 4.5859065,96.406983 v -0.365151 l 1.0954532,-0.464738 -0.4979333,-1.19504 1.2282353,-0.531128 0.4979333,1.228235 3.551924,-1.460604 0.132782,-0.962671 14.53965,-6.008395 0.165979,-0.962671 c 3.087185,-1.294626 6.174372,-2.589253 6.340349,-2.589253 1.161845,0 2.821622,2.788426 2.821622,4.979333 0,0.730302 -0.232368,1.095453 -0.497933,1.19504 l -6.141177,2.556057 -0.763497,-0.59752 -4.315423,1.79256 -0.03319,0.730302 -1.228236,0.497933 0.331956,0.829889 c 0.59752,0.232369 0.929474,0.531129 1.19504,1.128648 l 5.842416,12.547921 -0.531129,0.23237 -6.174375,-10.788557 -0.531128,8.796817 h -0.531128 l -0.59752,-8.796817 -6.107982,10.788557 -0.531128,-0.23237 6.041589,-13.07905 -0.232369,-0.66391 -1.228235,0.531129 -0.564324,-0.497933 -5.377679,2.224101 -0.763498,-0.564324 -3.2199681,1.327822 z M 31.474302,84.589367 c 0,1.560191 1.294626,3.95027 2.058124,3.95027 0.199174,0 0.398347,-0.199173 0.398347,-0.796693 0,-1.327822 -1.261432,-3.850684 -2.058125,-3.850684 -0.232369,0 -0.398346,0.165977 -0.398346,0.697107 z"
       style="stroke-width:0.165978" />
    <text
       xml:space="preserve"
       style="font-size:14.1111px;line-height:1.25;font-family:sans-serif;word-spacing:0px;stroke-width:0.264583"
       x="40.6255"
       y="100.57769"
       id="text3027"><tspan
         sodipodi:role="line"
         id="tspan3025"
         style="stroke-width:0.264583"
         x="40.6255"
         y="100.57769">Kepler1-t</tspan></text>
    <text
       xml:space="preserve"
       style="font-size:14.1111px;line-height:1.25;font-family:sans-serif;word-spacing:0px;stroke-width:0.264583"
       x="39.836651"
       y="58.177288"
       id="text5623"><tspan
         sodipodi:role="line"
         id="tspan5621"
         style="stroke-width:0.264583"
         x="39.836651"
         y="58.177288">Kepler1-m</tspan></text>
    <text
       xml:space="preserve"
       style="font-size:14.1111px;line-height:1.25;font-family:sans-serif;word-spacing:0px;stroke-width:0.264583"
       x="39.44223"
       y="22.679281"
       id="text8183"><tspan
         sodipodi:role="line"
         id="tspan8181"
         style="stroke-width:0.264583"
         x="39.44223"
         y="22.679281">Kepler1-pc</tspan></text>
  </g>
</svg>
